<svg width="159" height="30" viewBox="0 0 159 30" fill="none" xmlns="http://www.w3.org/2000/svg">
<path d="M32.5779 10.8416C32.331 10.8416 32.0841 10.851 31.8465 10.8697C31.784 10.8728 31.7247 10.8791 31.6621 10.8853L31.559 10.8947L31.5434 10.9978C31.509 11.251 31.459 11.5104 31.3996 11.7698C31.0965 13.0636 30.4902 14.295 29.6463 15.3295C29.0588 16.0514 28.3712 16.6671 27.5993 17.1671C28.5931 15.7233 29.1401 14.045 29.1869 12.273C29.1869 12.1886 29.1901 12.1073 29.1901 12.0229C29.1901 11.9229 29.1901 11.826 29.1838 11.7323C29.1838 11.7104 29.1838 11.6916 29.1838 11.6698L29.1651 11.5073L29.1119 11.526C28.89 11.001 28.6213 10.4915 28.3087 10.0134C27.7868 9.21018 27.1524 8.48824 26.4242 7.86944C26.2679 7.73505 26.1023 7.60379 25.9148 7.46628C24.2177 6.20992 22.2051 5.54424 20.0893 5.54424C17.8609 5.54424 15.6826 6.31305 13.9512 7.70692C13.2793 8.2476 12.6824 8.87265 12.1698 9.57271C11.6948 10.2259 11.301 10.9353 10.9978 11.6823L10.9885 11.7042V11.726C10.9853 11.8229 10.9822 11.9229 10.9822 12.0229C10.9822 12.1761 10.9853 12.3386 10.9947 12.5011C11.026 13.1293 11.126 13.7575 11.2854 14.3638C11.7448 16.0983 12.723 17.6672 14.07 18.8548C12.7167 18.3016 11.5198 17.4203 10.5791 16.2764C10.129 15.7295 9.74773 15.1294 9.43833 14.4919L9.39145 14.3919L9.28519 14.42C9.02892 14.4856 8.77889 14.5669 8.53825 14.6544C5.69112 15.7233 3.77533 18.486 3.77533 21.5269C3.77533 22.2645 3.88472 22.9926 4.10036 23.6896V23.7115L4.12224 23.7458C5.48798 25.7648 7.7538 26.9711 10.1853 26.9774H25.5429L25.3428 26.7555C24.6803 26.0179 24.149 25.1835 23.7646 24.2709C23.6021 23.8896 23.4677 23.4896 23.3583 23.0833C23.1645 22.3457 23.0676 21.5831 23.0676 20.8143C23.0676 20.7206 23.0676 20.6268 23.0708 20.533C23.0895 19.9236 23.1708 19.3204 23.3114 18.7391C23.4083 18.3266 23.5396 17.9203 23.6958 17.5234C23.6958 17.6015 23.6927 17.6797 23.6927 17.7578C23.6927 17.7766 23.6927 17.7984 23.6927 17.8172C23.6927 18.0985 23.7052 18.386 23.7333 18.6641C23.7771 19.1361 23.8583 19.6111 23.974 20.0768C24.1896 20.9268 24.5271 21.7394 24.9741 22.4926C25.1428 22.777 25.3303 23.0583 25.5335 23.3239C27.2836 25.646 29.9495 26.9774 32.8529 26.9774C36.3469 26.9774 39.4878 25.0366 41.0505 21.9113L41.063 21.8832C41.3474 21.3081 41.5724 20.7018 41.7287 20.0799V20.0549C41.7349 20.0361 41.7349 20.0143 41.7349 19.9955C41.7349 14.9451 37.6252 10.8353 32.5747 10.8353L32.5779 10.8416Z" fill="url(#paint0_linear_1670_1101)"/>
<path d="M33.0716 6.0474C32.3716 6.0474 31.684 6.10678 31.0152 6.22242C30.8558 6.25055 30.6964 6.2818 30.5371 6.31618C29.4057 4.17224 27.6337 2.41896 25.4772 1.30949C23.8521 0.471916 22.0113 0 20.058 0C14.2387 0 9.40082 4.19724 8.40386 9.72585C3.62532 10.5822 0 14.7575 0 19.7799C0 25.421 4.57227 29.9901 10.2103 29.9901H10.2165V29.9995H33.0716V29.9901C39.6847 29.9901 45.0446 24.6303 45.0446 18.0172C45.0446 11.4041 39.6847 6.04428 33.0716 6.04428V6.0474ZM40.9598 21.9832C39.4785 24.9428 36.4188 26.9774 32.881 26.9774C29.9339 26.9774 27.3149 25.5647 25.6679 23.377C25.4679 23.1145 25.2835 22.8395 25.1178 22.5582C24.6803 21.8269 24.3459 21.0268 24.1302 20.1768C24.0146 19.7267 23.9365 19.2611 23.8927 18.786C23.8677 18.511 23.8552 18.2328 23.8552 17.9484C23.8552 17.9328 23.8552 17.9141 23.8552 17.8984C23.8552 17.6047 23.8708 17.3109 23.9021 17.0265C23.9052 16.989 23.9083 16.9515 23.9146 16.9171C23.8802 16.9796 23.8521 17.0452 23.8208 17.1109C23.5614 17.6609 23.3552 18.2391 23.2114 18.8454C23.0708 19.433 22.9864 20.0393 22.9676 20.6643C22.9676 20.7581 22.9645 20.8549 22.9645 20.9518C22.9645 21.7488 23.0676 22.5207 23.2614 23.2552C23.3708 23.6708 23.5083 24.0709 23.674 24.4615C24.0646 25.3928 24.6084 26.2429 25.2741 26.9836H10.2165C7.73818 26.9774 5.55361 25.721 4.26287 23.8083C3.48468 22.6582 3.03152 21.2706 3.03152 19.7767C3.03152 16.4858 5.23796 13.7075 8.25385 12.848C8.39449 12.8074 8.53512 12.773 8.67889 12.7417C8.8289 13.4231 9.05392 14.0731 9.34769 14.6857C9.66022 15.3388 10.0509 15.9451 10.504 16.4983C11.6073 17.8391 13.0886 18.8548 14.7888 19.3798C13.173 18.186 11.9698 16.4639 11.4416 14.4669C11.2854 13.8762 11.1854 13.2605 11.1541 12.6292C11.1447 12.473 11.1416 12.3167 11.1416 12.1573C11.1416 12.0604 11.1416 11.9635 11.1479 11.8667C11.1729 11.101 11.2916 10.3572 11.4979 9.65084C12.1667 7.34127 13.7418 5.41922 15.8076 4.28475C17.0859 3.58469 18.5516 3.18465 20.1111 3.18465C21.0331 3.18465 21.9238 3.32529 22.7614 3.58156C24.8084 4.21287 26.543 5.55986 27.6712 7.32877C28.1712 8.11009 28.5556 8.97579 28.7931 9.89774C28.9525 10.5134 29.0494 11.1541 29.0713 11.8167C29.0713 11.8323 29.0713 11.8479 29.0713 11.8635C29.0744 11.9604 29.0775 12.0573 29.0775 12.1542C29.0775 12.2354 29.0775 12.3167 29.0744 12.4011C29.0213 14.4231 28.2962 16.2795 27.1149 17.7516C28.1368 17.1921 29.0369 16.4421 29.7682 15.5451C30.6152 14.5075 31.2309 13.2793 31.5465 11.9323C31.6059 11.676 31.6559 11.4135 31.6934 11.1479C31.7403 10.8291 31.7684 10.504 31.7778 10.1759C31.7809 10.079 31.784 9.979 31.784 9.88212C31.784 9.58209 31.7684 9.28831 31.7403 8.99766C32.1122 8.95078 32.4903 8.92578 32.8748 8.92578C37.8596 8.92578 41.9037 12.9668 41.9037 17.9516C41.9037 18.7204 41.8068 19.4673 41.6255 20.1799C41.4661 20.8112 41.2411 21.4144 40.9536 21.9832H40.9598Z" fill="#174BB5"/>
<path d="M41.9099 17.9516C41.9099 12.9668 37.8689 8.92578 32.881 8.92578C32.4966 8.92578 32.1184 8.95078 31.7465 8.99766C31.7747 9.28831 31.7903 9.58521 31.7903 9.88211C31.7903 9.979 31.7903 10.079 31.784 10.1759C31.7747 10.5072 31.7465 10.8291 31.6997 11.151C31.759 11.1447 31.8215 11.1385 31.8809 11.1354C32.1184 11.1166 32.3591 11.1072 32.6029 11.1072C37.5877 11.1072 41.6286 15.1482 41.6286 20.1361C41.6286 20.1518 41.6286 20.1705 41.6286 20.1861C41.8099 19.4736 41.9068 18.7266 41.9068 17.9578L41.9099 17.9516Z" fill="#E9F0FF"/>
<path d="M8.67889 12.7386C8.53512 12.7699 8.39449 12.8042 8.25385 12.8449C5.23796 13.7074 3.03152 16.4827 3.03152 19.7736C3.03152 21.2675 3.48468 22.652 4.26287 23.8021C4.05348 23.1239 3.93785 22.4051 3.93785 21.6581C3.93785 18.5704 5.88177 15.9326 8.61326 14.9107C8.85078 14.82 9.09767 14.745 9.34769 14.6794C9.05392 14.0669 8.82577 13.4168 8.67889 12.7355V12.7386Z" fill="#E9F0FF"/>
<path d="M27.6774 7.32877C26.5461 5.55986 24.8116 4.21287 22.7676 3.58156C21.93 3.32217 21.0393 3.18465 20.1174 3.18465C18.5579 3.18465 17.0921 3.58156 15.8139 4.28475C13.745 5.41922 12.1729 7.34127 11.5041 9.65084C11.2979 10.3572 11.1791 11.0978 11.1541 11.8667C11.4541 11.1228 11.8417 10.4228 12.3073 9.78523C12.8105 9.09767 13.4012 8.47574 14.0637 7.94445C15.7201 6.60995 17.8266 5.81301 20.1174 5.81301C22.2707 5.81301 24.2584 6.5162 25.8648 7.70692C26.0367 7.83506 26.2023 7.96632 26.3648 8.10383C27.0836 8.71326 27.7118 9.42583 28.2243 10.2165C28.5525 10.7197 28.8338 11.2604 29.065 11.8229C29.0682 11.8229 29.0744 11.8198 29.0807 11.8167C29.0557 11.1541 28.9619 10.5134 28.8025 9.89774C28.565 8.97579 28.1806 8.11009 27.6806 7.32877H27.6774Z" fill="#E9F0FF"/>
<path d="M67.0684 16.8358V25.1428C67.0684 25.8023 66.6965 26.1742 66.037 26.1742H64.09C63.4587 26.1742 63.0587 25.8023 63.0587 25.1428V17.1796C63.0587 15.0607 62.0554 14.5169 60.2522 14.5169C59.1927 14.5169 57.7894 14.7732 56.8737 15.2326V25.1428C56.8737 25.8023 56.5018 26.1742 55.8424 26.1742H53.8953C53.2359 26.1742 52.864 25.8023 52.864 25.1428V14.5169C52.864 14.0575 52.8921 13.2574 53.7516 12.6261C55.0673 11.7104 57.8457 10.9072 60.5116 10.9072C64.4056 10.9072 67.0715 12.1667 67.0715 16.8358H67.0684Z" fill="#E9F0FF"/>
<path d="M69.2342 19.2986V12.1667C69.2342 11.5073 69.6061 11.1354 70.2655 11.1354H72.1844C72.8439 11.1354 73.2158 11.5073 73.2158 12.1667V19.4705C73.2158 21.8488 74.4471 22.9926 76.3379 22.9926C78.2287 22.9926 79.4601 21.8457 79.4601 19.4705V12.1667C79.4601 11.5073 79.832 11.1354 80.4914 11.1354H82.4385C83.0698 11.1354 83.4417 11.5073 83.4417 12.1667V19.2986C83.4417 23.8521 80.5196 26.4023 76.3379 26.4023C72.1563 26.4023 69.2342 23.8521 69.2342 19.2986Z" fill="#E9F0FF"/>
<path d="M85.7606 19.2986V12.1667C85.7606 11.5073 86.1325 11.1354 86.792 11.1354H88.7109C89.3703 11.1354 89.7422 11.5073 89.7422 12.1667V19.4705C89.7422 21.8488 90.9736 22.9926 92.8644 22.9926C94.7552 22.9926 95.9865 21.8457 95.9865 19.4705V12.1667C95.9865 11.5073 96.3584 11.1354 97.0179 11.1354H98.9649C99.5962 11.1354 99.9681 11.5073 99.9681 12.1667V19.2986C99.9681 23.8521 97.046 26.4023 92.8644 26.4023C88.6828 26.4023 85.7606 23.8521 85.7606 19.2986Z" fill="#E9F0FF"/>
<path d="M117.532 11.8823C117.532 11.9979 117.504 12.1698 117.445 12.3417L112.891 24.3709C112.375 25.7741 111.088 26.4054 109.713 26.4054C108.338 26.4054 107.05 25.7741 106.534 24.3709L102.009 12.3417C101.921 12.1698 101.893 11.9979 101.893 11.8823C101.893 11.4229 102.237 11.1385 102.837 11.1385H104.784C105.384 11.1385 105.787 11.426 105.987 11.9698L109.71 22.5113L113.463 11.9698C113.635 11.426 114.063 11.1385 114.666 11.1385H116.613C117.213 11.1385 117.529 11.426 117.529 11.8823H117.532Z" fill="#E9F0FF"/>
<path d="M131.071 20.358H121.82C122.248 22.2207 123.739 23.2802 125.774 23.2802C126.861 23.2802 128.18 22.9645 129.355 22.5926C129.583 22.5082 129.783 22.4488 129.955 22.4488C130.327 22.4488 130.615 22.677 130.815 23.1083L131.215 24.024C131.299 24.1959 131.358 24.424 131.358 24.5959C131.358 24.9397 131.243 25.1397 130.815 25.3116C129.611 25.8273 127.577 26.3992 125.373 26.3992C120.848 26.3992 117.813 23.2208 117.813 18.636C117.813 14.0512 120.907 10.9041 125.345 10.9041C130.043 10.9041 132.333 14.4263 132.333 19.0954C132.333 19.8986 131.874 20.3549 131.074 20.3549L131.071 20.358ZM121.792 17.6078H128.636C128.408 15.4326 127.405 13.9981 125.342 13.9981C123.28 13.9981 122.136 15.3732 121.792 17.6078Z" fill="#E9F0FF"/>
<path d="M157.883 16.8358V25.1428C157.883 25.8023 157.511 26.1742 156.851 26.1742H154.932C154.273 26.1742 153.901 25.8023 153.901 25.1428V17.1515C153.901 15.0326 152.898 14.5169 151.295 14.5169C150.407 14.5169 149.004 14.7732 148 15.2888C148.085 15.7483 148.116 16.2639 148.116 16.8358V25.1428C148.116 25.8023 147.744 26.1742 147.085 26.1742H145.138C144.506 26.1742 144.106 25.8023 144.106 25.1428V17.1515C144.106 15.0326 143.131 14.5169 141.528 14.5169C140.64 14.5169 139.265 14.7732 138.35 15.2326V25.1428C138.35 25.8023 137.978 26.1742 137.318 26.1742H135.371C134.712 26.1742 134.34 25.8023 134.34 25.1428V14.5169C134.34 14.0575 134.368 13.2574 135.227 12.6261C136.543 11.7104 139.322 10.9072 141.787 10.9072C143.65 10.9072 145.281 11.251 146.397 12.1948C147.916 11.4791 149.891 10.9072 151.582 10.9072C155.192 10.9072 157.883 12.1667 157.883 16.8358Z" fill="#E9F0FF"/>
<defs>
<linearGradient id="paint0_linear_1670_1101" x1="78.9543" y1="30.0083" x2="78.9543" y2="0.00437435" gradientUnits="userSpaceOnUse">
<stop stop-color="#E9F0FF"/>
<stop offset="1" stop-color="#98BAFF"/>
</linearGradient>
</defs>
</svg>
